<svg fill="none" height="15" viewBox="0 0 14 15" width="14" xmlns="http://www.w3.org/2000/svg"><g stroke="#4147d5" stroke-linecap="round" stroke-linejoin="round" stroke-width="1.5"><path d="m4.02742 2.39644c.94518-.56615 2.02623-.86533 3.12801-.86568.91667-.00054 1.82165.20583 2.64747.60373.8258.3979 1.5512.97706 2.122 1.69432s.9724 1.55411 1.1748 2.44816c.2024.89406.2004 1.82227-.0059 2.71544s-.6115 1.72829-1.1855 2.44299c-.5739.7148-1.3018 1.2908-2.12936 1.6851-.82754.3943-1.73341.5967-2.65008.5921-.76508-.0037-1.52121-.1516-2.22922-.4344l-3.32918.5543c-.37197.062-.67602-.2945-.55622-.652l.85166-2.542c-.4744-.83207-.74688-1.7662-.79266-2.72687-.05243-1.10052.19462-2.19466.71485-3.16588.52022-.97122 1.29414-1.78315 2.23933-2.34931z" fill="#d7e0ff"/><path d="m4.8125 6.25h4.875"/><path d="m4.8125 9.25h3.6875"/></g></svg>